# xmcd CD database file
#
# Track frame offsets:
#	150
#	15847
#	27090
#	51205
#	65373
#	87774
#	101041
#	108049
#	121251
#	129411
#	142980
#	152929
#	172066
#	187701
#
# Disc length: 2765 seconds
#
# Revision: 0
# Processed by: cddbd v1.5PL3 Copyright (c) Steve Scherf et al.
# Submitted via: Feurio! 1.67 - http://www.feurio.com
#
DISCID=a60acb0e
DTITLE=Son House - The Legendary 1941/42 Recordings In Chronological Sequence
DYEAR=1900
DGENRE=
TTITLE0=Shetland Pony Blues
TTITLE1=Camp Hollers
TTITLE2=Delta Blues
TTITLE3=Special Rider Blues
TTITLE4=Low Down Dirty Dog Blues
TTITLE5=Depot Blues
TTITLE6=The Key Of Minor
TTITLE7=American Defense
TTITLE8=Am I Right Or Wrong
TTITLE9=Walking Blues
TTITLE10=County Farm Blues
TTITLE11=The Pony Blues
TTITLE12=The Jinx Blues - Part 1
TTITLE13=The Jinx Blues - Part 2
EXTD=
EXTT0=
EXTT1=
EXTT2=
EXTT3=
EXTT4=
EXTT5=
EXTT6=
EXTT7=
EXTT8=
EXTT9=
EXTT10=
EXTT11=
EXTT12=
EXTT13=
PLAYORDER=
